# OBJ generated by ONSHAPE BY PTC INC, 1.213 Units = meters
mtllib buoy_body - buoy_mid_cone_bottom.mtl
g buoy_mid_cone_bottom
v 0.107156 -4.44089e-16 -0.00822686 
v 0.106212 -4.44089e-16 -0.0164054 
v 0.104644 -4.44089e-16 -0.0244878 
v 0.102463 -4.44089e-16 -0.0324264 
v 0.0996801 -4.44089e-16 -0.0401747 
v 0.0963122 -4.44089e-16 -0.0476872 
v 0.0923792 -4.44089e-16 -0.0549199 
v 0.0879041 -4.44089e-16 -0.0618304 
v 0.0829131 -4.44089e-16 -0.0683779 
v 0.0774355 -4.44089e-16 -0.0745242 
v 0.0715035 -4.44089e-16 -0.0802332 
v 0.0651519 -4.44089e-16 -0.0854713 
v 0.058418 -4.44089e-16 -0.0902079 
v 0.0513413 -4.44089e-16 -0.094415 
v 0.0439632 -4.44089e-16 -0.0980681 
v 0.0363272 -4.44089e-16 -0.101146 
v 0.028478 -4.44089e-16 -0.10363 
v 0.0204616 -4.44089e-16 -0.105506 
v 0.0123252 -4.44089e-16 -0.106762 
v 0.00411645 -4.44089e-16 -0.107393 
v -0.00411645 -4.44089e-16 -0.107393 
v -0.0123252 -4.44089e-16 -0.106762 
v -0.0204616 -4.44089e-16 -0.105506 
v -0.028478 -4.44089e-16 -0.10363 
v -0.0363272 -4.44089e-16 -0.101146 
v -0.0439632 -4.44089e-16 -0.0980681 
v -0.0513413 -4.44089e-16 -0.094415 
v -0.058418 -4.44089e-16 -0.0902079 
v -0.0651519 -4.44089e-16 -0.0854713 
v -0.0715035 -4.44089e-16 -0.0802332 
v -0.0774355 -4.44089e-16 -0.0745242 
v -0.0829131 -4.44089e-16 -0.0683779 
v -0.0879041 -4.44089e-16 -0.0618304 
v -0.0923792 -4.44089e-16 -0.0549199 
v -0.0963122 -4.44089e-16 -0.0476872 
v -0.0996801 -4.44089e-16 -0.0401747 
v -0.102463 -4.44089e-16 -0.0324264 
v -0.104644 -4.44089e-16 -0.0244878 
v -0.106212 -4.44089e-16 -0.0164054 
v -0.107156 -4.44089e-16 -0.00822686 
v -0.107471 -4.44089e-16 0 
v -0.107156 -4.44089e-16 0.00822686 
v -0.106212 -4.44089e-16 0.0164054 
v -0.104644 -4.44089e-16 0.0244878 
v -0.102463 -4.44089e-16 0.0324264 
v -0.0996801 -4.44089e-16 0.0401747 
v -0.0963122 -4.44089e-16 0.0476872 
v -0.0923792 -4.44089e-16 0.0549199 
v -0.0879041 -4.44089e-16 0.0618304 
v -0.0829131 -4.44089e-16 0.0683779 
v -0.0774355 -4.44089e-16 0.0745242 
v -0.0715035 -4.44089e-16 0.0802332 
v -0.0651519 -4.44089e-16 0.0854713 
v -0.058418 -4.44089e-16 0.0902079 
v -0.0513413 -4.44089e-16 0.094415 
v -0.0439632 -4.44089e-16 0.0980681 
v -0.0363272 -4.44089e-16 0.101146 
v -0.028478 -4.44089e-16 0.10363 
v -0.0204616 -4.44089e-16 0.105506 
v -0.0123252 -4.44089e-16 0.106762 
v -0.00411645 -4.44089e-16 0.107393 
v 0.00411645 -4.44089e-16 0.107393 
v 0.0123252 -4.44089e-16 0.106762 
v 0.0204616 -4.44089e-16 0.105506 
v 0.028478 -4.44089e-16 0.10363 
v 0.0363272 -4.44089e-16 0.101146 
v 0.0439632 -4.44089e-16 0.0980681 
v 0.0513413 -4.44089e-16 0.094415 
v 0.058418 -4.44089e-16 0.0902079 
v 0.0651519 -4.44089e-16 0.0854713 
v 0.0715035 -4.44089e-16 0.0802332 
v 0.0774355 -4.44089e-16 0.0745242 
v 0.0829131 -4.44089e-16 0.0683779 
v 0.0879041 -4.44089e-16 0.0618304 
v 0.0923792 -4.44089e-16 0.0549199 
v 0.0963122 -4.44089e-16 0.0476872 
v 0.0996801 -4.44089e-16 0.0401747 
v 0.102463 -4.44089e-16 0.0324264 
v 0.104644 -4.44089e-16 0.0244878 
v 0.106212 -4.44089e-16 0.0164054 
v 0.107156 -4.44089e-16 0.00822686 
v 0.107471 -4.44089e-16 -3.94844e-17 
v 0 -4.42354e-16 0 
v -0.16106 -0.7 0 
v -0.160587 -0.7 -0.012329 
v -0.159172 -0.7 -0.0245857 
v -0.156823 -0.7 -0.036698 
v -0.153554 -0.7 -0.0485951 
v -0.149383 -0.7 -0.0602069 
v -0.144336 -0.7 -0.0714654 
v -0.138442 -0.7 -0.0823046 
v -0.131736 -0.7 -0.0926607 
v -0.124256 -0.7 -0.102473 
v -0.116047 -0.7 -0.111684 
v -0.107157 -0.7 -0.12024 
v -0.0976385 -0.7 -0.12809 
v -0.0875469 -0.7 -0.135188 
v -0.0769414 -0.7 -0.141493 
v -0.0658845 -0.7 -0.146968 
v -0.0544409 -0.7 -0.15158 
v -0.0426779 -0.7 -0.155302 
v -0.0306643 -0.7 -0.158114 
v -0.0184709 -0.7 -0.159997 
v -0.00616903 -0.7 -0.160942 
v 0.00616903 -0.7 -0.160942 
v 0.0184709 -0.7 -0.159997 
v 0.0306643 -0.7 -0.158114 
v 0.0426779 -0.7 -0.155302 
v 0.0544409 -0.7 -0.15158 
v 0.0658845 -0.7 -0.146968 
v 0.0769414 -0.7 -0.141493 
v 0.0875469 -0.7 -0.135188 
v 0.0976385 -0.7 -0.12809 
v 0.107157 -0.7 -0.12024 
v 0.116047 -0.7 -0.111684 
v 0.124256 -0.7 -0.102473 
v 0.131736 -0.7 -0.0926607 
v 0.138442 -0.7 -0.0823046 
v 0.144336 -0.7 -0.0714654 
v 0.149383 -0.7 -0.0602069 
v 0.153554 -0.7 -0.0485951 
v 0.156823 -0.7 -0.036698 
v 0.159172 -0.7 -0.0245857 
v 0.160587 -0.7 -0.012329 
v 0.16106 -0.7 -1.97241e-17 
v 0.160587 -0.7 0.012329 
v 0.159172 -0.7 0.0245857 
v 0.156823 -0.7 0.036698 
v 0.153554 -0.7 0.0485951 
v 0.149383 -0.7 0.0602069 
v 0.144336 -0.7 0.0714654 
v 0.138442 -0.7 0.0823046 
v 0.131736 -0.7 0.0926607 
v 0.124256 -0.7 0.102473 
v 0.116047 -0.7 0.111684 
v 0.107157 -0.7 0.12024 
v 0.0976385 -0.7 0.12809 
v 0.0875469 -0.7 0.135188 
v 0.0769414 -0.7 0.141493 
v 0.0658845 -0.7 0.146968 
v 0.0544409 -0.7 0.15158 
v 0.0426779 -0.7 0.155302 
v 0.0306643 -0.7 0.158114 
v 0.0184709 -0.7 0.159997 
v 0.00616903 -0.7 0.160942 
v -0.00616903 -0.7 0.160942 
v -0.0184709 -0.7 0.159997 
v -0.0306643 -0.7 0.158114 
v -0.0426779 -0.7 0.155302 
v -0.0544409 -0.7 0.15158 
v -0.0658845 -0.7 0.146968 
v -0.0769414 -0.7 0.141493 
v -0.0875469 -0.7 0.135188 
v -0.0976385 -0.7 0.12809 
v -0.107157 -0.7 0.12024 
v -0.116047 -0.7 0.111684 
v -0.124256 -0.7 0.102473 
v -0.131736 -0.7 0.0926607 
v -0.138442 -0.7 0.0823046 
v -0.144336 -0.7 0.0714654 
v -0.149383 -0.7 0.0602069 
v -0.153554 -0.7 0.0485951 
v -0.156823 -0.7 0.036698 
v -0.159172 -0.7 0.0245857 
v -0.160587 -0.7 0.012329 
v 0 -0.7 0 
vn 0 1 0 
vn -0.997083 0.0763313 0 
vn -0.994157 0.0763313 -0.0763259 
vn -0.985397 0.0763313 -0.152204 
vn -0.970855 0.0763313 -0.227189 
vn -0.950615 0.0763313 -0.30084 
vn -0.924796 0.0763313 -0.372726 
vn -0.893551 0.0763313 -0.442425 
vn -0.857062 0.0763313 -0.509528 
vn -0.815543 0.0763313 -0.57364 
vn -0.769238 0.0763313 -0.634386 
vn -0.718419 0.0763313 -0.691409 
vn -0.663385 0.0763313 -0.744375 
vn -0.604457 0.0763313 -0.792973 
vn -0.541982 0.0763313 -0.836917 
vn -0.476326 0.0763313 -0.875949 
vn -0.407875 0.0763313 -0.909841 
vn -0.337031 0.0763313 -0.938394 
vn -0.264208 0.0763313 -0.96144 
vn -0.189836 0.0763313 -0.978844 
vn -0.114349 0.0763313 -0.990504 
vn -0.038191 0.0763313 -0.996351 
vn 0.038191 0.0763313 -0.996351 
vn 0.114349 0.0763313 -0.990504 
vn 0.189836 0.0763313 -0.978844 
vn 0.264208 0.0763313 -0.96144 
vn 0.337031 0.0763313 -0.938394 
vn 0.407875 0.0763313 -0.909841 
vn 0.476326 0.0763313 -0.875949 
vn 0.541982 0.0763313 -0.836917 
vn 0.604457 0.0763313 -0.792973 
vn 0.663385 0.0763313 -0.744375 
vn 0.718419 0.0763313 -0.691409 
vn 0.769238 0.0763313 -0.634386 
vn 0.815543 0.0763313 -0.57364 
vn 0.857062 0.0763313 -0.509528 
vn 0.893551 0.0763313 -0.442425 
vn 0.924796 0.0763313 -0.372726 
vn 0.950615 0.0763313 -0.30084 
vn 0.970855 0.0763313 -0.227189 
vn 0.985397 0.0763313 -0.152204 
vn 0.994157 0.0763313 -0.0763259 
vn 0.997083 0.0763313 -2.07559e-16 
vn 0.994157 0.0763313 0.0763259 
vn 0.985397 0.0763313 0.152204 
vn 0.970855 0.0763313 0.227189 
vn 0.950615 0.0763313 0.30084 
vn 0.924796 0.0763313 0.372726 
vn 0.893551 0.0763313 0.442425 
vn 0.857062 0.0763313 0.509528 
vn 0.815543 0.0763313 0.57364 
vn 0.769238 0.0763313 0.634386 
vn 0.718419 0.0763313 0.691409 
vn 0.663385 0.0763313 0.744375 
vn 0.604457 0.0763313 0.792973 
vn 0.541982 0.0763313 0.836917 
vn 0.476326 0.0763313 0.875949 
vn 0.407875 0.0763313 0.909841 
vn 0.337031 0.0763313 0.938394 
vn 0.264208 0.0763313 0.96144 
vn 0.189836 0.0763313 0.978844 
vn 0.114349 0.0763313 0.990504 
vn 0.038191 0.0763313 0.996351 
vn -0.038191 0.0763313 0.996351 
vn -0.114349 0.0763313 0.990504 
vn -0.189836 0.0763313 0.978844 
vn -0.264208 0.0763313 0.96144 
vn -0.337031 0.0763313 0.938394 
vn -0.407875 0.0763313 0.909841 
vn -0.476326 0.0763313 0.875949 
vn -0.541982 0.0763313 0.836917 
vn -0.604457 0.0763313 0.792973 
vn -0.663385 0.0763313 0.744375 
vn -0.718419 0.0763313 0.691409 
vn -0.769238 0.0763313 0.634386 
vn -0.815543 0.0763313 0.57364 
vn -0.857062 0.0763313 0.509528 
vn -0.893551 0.0763313 0.442425 
vn -0.924796 0.0763313 0.372726 
vn -0.950615 0.0763313 0.30084 
vn -0.970855 0.0763313 0.227189 
vn -0.985397 0.0763313 0.152204 
vn -0.994157 0.0763313 0.0763259 
vn 0 -1 0 
usemtl 1.000000_0.756863_0.054902_0.000000_0.000000
o mesh0
f 83//1 1//1 2//1 
f 2//1 3//1 83//1 
f 3//1 4//1 83//1 
f 4//1 5//1 83//1 
f 5//1 6//1 83//1 
f 6//1 7//1 83//1 
f 7//1 8//1 83//1 
f 8//1 9//1 83//1 
f 9//1 10//1 83//1 
f 10//1 11//1 83//1 
f 11//1 12//1 83//1 
f 12//1 13//1 83//1 
f 13//1 14//1 83//1 
f 14//1 15//1 83//1 
f 15//1 16//1 83//1 
f 16//1 17//1 83//1 
f 17//1 18//1 83//1 
f 18//1 19//1 83//1 
f 19//1 20//1 83//1 
f 20//1 21//1 83//1 
f 21//1 22//1 83//1 
f 22//1 23//1 83//1 
f 23//1 24//1 83//1 
f 24//1 25//1 83//1 
f 25//1 26//1 83//1 
f 26//1 27//1 83//1 
f 27//1 28//1 83//1 
f 28//1 29//1 83//1 
f 29//1 30//1 83//1 
f 30//1 31//1 83//1 
f 31//1 32//1 83//1 
f 32//1 33//1 83//1 
f 33//1 34//1 83//1 
f 34//1 35//1 83//1 
f 35//1 36//1 83//1 
f 36//1 37//1 83//1 
f 37//1 38//1 83//1 
f 38//1 39//1 83//1 
f 39//1 40//1 83//1 
f 40//1 41//1 83//1 
f 41//1 42//1 83//1 
f 42//1 43//1 83//1 
f 43//1 44//1 83//1 
f 44//1 45//1 83//1 
f 45//1 46//1 83//1 
f 46//1 47//1 83//1 
f 47//1 48//1 83//1 
f 48//1 49//1 83//1 
f 49//1 50//1 83//1 
f 50//1 51//1 83//1 
f 51//1 52//1 83//1 
f 52//1 53//1 83//1 
f 53//1 54//1 83//1 
f 54//1 55//1 83//1 
f 55//1 56//1 83//1 
f 56//1 57//1 83//1 
f 57//1 58//1 83//1 
f 58//1 59//1 83//1 
f 59//1 60//1 83//1 
f 60//1 61//1 83//1 
f 61//1 62//1 83//1 
f 62//1 63//1 83//1 
f 63//1 64//1 83//1 
f 64//1 65//1 83//1 
f 65//1 66//1 83//1 
f 66//1 67//1 83//1 
f 67//1 68//1 83//1 
f 68//1 69//1 83//1 
f 69//1 70//1 83//1 
f 70//1 71//1 83//1 
f 71//1 72//1 83//1 
f 72//1 73//1 83//1 
f 73//1 74//1 83//1 
f 74//1 75//1 83//1 
f 75//1 76//1 83//1 
f 76//1 77//1 83//1 
f 77//1 78//1 83//1 
f 78//1 79//1 83//1 
f 79//1 80//1 83//1 
f 80//1 81//1 83//1 
f 81//1 82//1 83//1 
f 82//1 1//1 83//1 
o mesh1
f 84//2 41//2 40//3 
f 85//3 40//3 39//4 
f 86//4 39//4 38//5 
f 87//5 38//5 37//6 
f 88//6 37//6 36//7 
f 89//7 36//7 35//8 
f 90//8 35//8 34//9 
f 91//9 34//9 33//10 
f 92//10 33//10 32//11 
f 93//11 32//11 31//12 
f 94//12 31//12 30//13 
f 95//13 30//13 29//14 
f 96//14 29//14 28//15 
f 97//15 28//15 27//16 
f 98//16 27//16 26//17 
f 99//17 26//17 25//18 
f 100//18 25//18 24//19 
f 101//19 24//19 23//20 
f 102//20 23//20 22//21 
f 103//21 22//21 21//22 
f 104//22 21//22 20//23 
f 105//23 20//23 19//24 
f 106//24 19//24 18//25 
f 107//25 18//25 17//26 
f 108//26 17//26 16//27 
f 109//27 16//27 15//28 
f 110//28 15//28 14//29 
f 111//29 14//29 13//30 
f 112//30 13//30 12//31 
f 113//31 12//31 11//32 
f 114//32 11//32 10//33 
f 115//33 10//33 9//34 
f 116//34 9//34 8//35 
f 117//35 8//35 7//36 
f 118//36 7//36 6//37 
f 119//37 6//37 5//38 
f 120//38 5//38 4//39 
f 121//39 4//39 3//40 
f 122//40 3//40 2//41 
f 123//41 2//41 1//42 
f 124//42 1//42 82//43 
f 125//43 82//43 81//44 
f 126//44 81//44 80//45 
f 127//45 80//45 79//46 
f 128//46 79//46 78//47 
f 129//47 78//47 77//48 
f 130//48 77//48 76//49 
f 131//49 76//49 75//50 
f 132//50 75//50 74//51 
f 133//51 74//51 73//52 
f 134//52 73//52 72//53 
f 135//53 72//53 71//54 
f 136//54 71//54 70//55 
f 137//55 70//55 69//56 
f 138//56 69//56 68//57 
f 139//57 68//57 67//58 
f 140//58 67//58 66//59 
f 141//59 66//59 65//60 
f 142//60 65//60 64//61 
f 143//61 64//61 63//62 
f 144//62 63//62 62//63 
f 145//63 62//63 61//64 
f 146//64 61//64 60//65 
f 147//65 60//65 59//66 
f 148//66 59//66 58//67 
f 149//67 58//67 57//68 
f 150//68 57//68 56//69 
f 151//69 56//69 55//70 
f 152//70 55//70 54//71 
f 153//71 54//71 53//72 
f 154//72 53//72 52//73 
f 155//73 52//73 51//74 
f 156//74 51//74 50//75 
f 157//75 50//75 49//76 
f 158//76 49//76 48//77 
f 159//77 48//77 47//78 
f 160//78 47//78 46//79 
f 161//79 46//79 45//80 
f 162//80 45//80 44//81 
f 163//81 44//81 43//82 
f 164//82 43//82 42//83 
f 165//83 42//83 41//2 
f 41//2 84//2 165//83 
f 42//83 165//83 164//82 
f 43//82 164//82 163//81 
f 44//81 163//81 162//80 
f 45//80 162//80 161//79 
f 46//79 161//79 160//78 
f 47//78 160//78 159//77 
f 48//77 159//77 158//76 
f 49//76 158//76 157//75 
f 50//75 157//75 156//74 
f 51//74 156//74 155//73 
f 52//73 155//73 154//72 
f 53//72 154//72 153//71 
f 54//71 153//71 152//70 
f 55//70 152//70 151//69 
f 56//69 151//69 150//68 
f 57//68 150//68 149//67 
f 58//67 149//67 148//66 
f 59//66 148//66 147//65 
f 60//65 147//65 146//64 
f 61//64 146//64 145//63 
f 62//63 145//63 144//62 
f 63//62 144//62 143//61 
f 64//61 143//61 142//60 
f 65//60 142//60 141//59 
f 66//59 141//59 140//58 
f 67//58 140//58 139//57 
f 68//57 139//57 138//56 
f 69//56 138//56 137//55 
f 70//55 137//55 136//54 
f 71//54 136//54 135//53 
f 72//53 135//53 134//52 
f 73//52 134//52 133//51 
f 74//51 133//51 132//50 
f 75//50 132//50 131//49 
f 76//49 131//49 130//48 
f 77//48 130//48 129//47 
f 78//47 129//47 128//46 
f 79//46 128//46 127//45 
f 80//45 127//45 126//44 
f 81//44 126//44 125//43 
f 82//43 125//43 124//42 
f 1//42 124//42 123//41 
f 2//41 123//41 122//40 
f 3//40 122//40 121//39 
f 4//39 121//39 120//38 
f 5//38 120//38 119//37 
f 6//37 119//37 118//36 
f 7//36 118//36 117//35 
f 8//35 117//35 116//34 
f 9//34 116//34 115//33 
f 10//33 115//33 114//32 
f 11//32 114//32 113//31 
f 12//31 113//31 112//30 
f 13//30 112//30 111//29 
f 14//29 111//29 110//28 
f 15//28 110//28 109//27 
f 16//27 109//27 108//26 
f 17//26 108//26 107//25 
f 18//25 107//25 106//24 
f 19//24 106//24 105//23 
f 20//23 105//23 104//22 
f 21//22 104//22 103//21 
f 22//21 103//21 102//20 
f 23//20 102//20 101//19 
f 24//19 101//19 100//18 
f 25//18 100//18 99//17 
f 26//17 99//17 98//16 
f 27//16 98//16 97//15 
f 28//15 97//15 96//14 
f 29//14 96//14 95//13 
f 30//13 95//13 94//12 
f 31//12 94//12 93//11 
f 32//11 93//11 92//10 
f 33//10 92//10 91//9 
f 34//9 91//9 90//8 
f 35//8 90//8 89//7 
f 36//7 89//7 88//6 
f 37//6 88//6 87//5 
f 38//5 87//5 86//4 
f 39//4 86//4 85//3 
f 40//3 85//3 84//2 
o mesh2
f 166//84 126//84 127//84 
f 127//84 128//84 166//84 
f 128//84 129//84 166//84 
f 129//84 130//84 166//84 
f 130//84 131//84 166//84 
f 131//84 132//84 166//84 
f 132//84 133//84 166//84 
f 133//84 134//84 166//84 
f 134//84 135//84 166//84 
f 135//84 136//84 166//84 
f 136//84 137//84 166//84 
f 137//84 138//84 166//84 
f 138//84 139//84 166//84 
f 139//84 140//84 166//84 
f 140//84 141//84 166//84 
f 141//84 142//84 166//84 
f 142//84 143//84 166//84 
f 143//84 144//84 166//84 
f 144//84 145//84 166//84 
f 145//84 146//84 166//84 
f 146//84 147//84 166//84 
f 147//84 148//84 166//84 
f 148//84 149//84 166//84 
f 149//84 150//84 166//84 
f 150//84 151//84 166//84 
f 151//84 152//84 166//84 
f 152//84 153//84 166//84 
f 153//84 154//84 166//84 
f 154//84 155//84 166//84 
f 155//84 156//84 166//84 
f 156//84 157//84 166//84 
f 157//84 158//84 166//84 
f 158//84 159//84 166//84 
f 159//84 160//84 166//84 
f 160//84 161//84 166//84 
f 161//84 162//84 166//84 
f 162//84 163//84 166//84 
f 163//84 164//84 166//84 
f 164//84 165//84 166//84 
f 165//84 84//84 166//84 
f 84//84 85//84 166//84 
f 85//84 86//84 166//84 
f 86//84 87//84 166//84 
f 87//84 88//84 166//84 
f 88//84 89//84 166//84 
f 89//84 90//84 166//84 
f 90//84 91//84 166//84 
f 91//84 92//84 166//84 
f 92//84 93//84 166//84 
f 93//84 94//84 166//84 
f 94//84 95//84 166//84 
f 95//84 96//84 166//84 
f 96//84 97//84 166//84 
f 97//84 98//84 166//84 
f 98//84 99//84 166//84 
f 99//84 100//84 166//84 
f 100//84 101//84 166//84 
f 101//84 102//84 166//84 
f 102//84 103//84 166//84 
f 103//84 104//84 166//84 
f 104//84 105//84 166//84 
f 105//84 106//84 166//84 
f 106//84 107//84 166//84 
f 107//84 108//84 166//84 
f 108//84 109//84 166//84 
f 109//84 110//84 166//84 
f 110//84 111//84 166//84 
f 111//84 112//84 166//84 
f 112//84 113//84 166//84 
f 113//84 114//84 166//84 
f 114//84 115//84 166//84 
f 115//84 116//84 166//84 
f 116//84 117//84 166//84 
f 117//84 118//84 166//84 
f 118//84 119//84 166//84 
f 119//84 120//84 166//84 
f 120//84 121//84 166//84 
f 121//84 122//84 166//84 
f 122//84 123//84 166//84 
f 123//84 124//84 166//84 
f 124//84 125//84 166//84 
f 125//84 126//84 166//84 
