# OBJ generated by ONSHAPE BY PTC INC, 1.213 Units = meters
mtllib top_cones - cone_2.mtl
g cone_2
v -0.249526 1.34555 -0.0153902 
v -0.248105 1.34555 -0.0307221 
v -0.245743 1.34555 -0.0459374 
v -0.242449 1.34555 -0.0609784 
v -0.238236 1.34555 -0.0757882 
v -0.233118 1.34555 -0.0903104 
v -0.227116 1.34555 -0.10449 
v -0.220253 1.34555 -0.118273 
v -0.212554 1.34555 -0.131608 
v -0.204049 1.34555 -0.144443 
v -0.19477 1.34555 -0.156731 
v -0.184752 1.34555 -0.168424 
v -0.174033 1.34555 -0.179478 
v -0.162655 1.34555 -0.189851 
v -0.150659 1.34555 -0.199504 
v -0.138091 1.34555 -0.208401 
v -0.125 1.34555 -0.216506 
v -0.111435 1.34555 -0.223791 
v -0.0974465 1.34555 -0.230226 
v -0.0830887 1.34555 -0.235789 
v -0.0684157 1.34555 -0.240456 
v -0.0534833 1.34555 -0.244212 
v -0.0383479 1.34555 -0.247041 
v -0.0230671 1.34555 -0.248934 
v -0.00769876 1.34555 -0.249881 
v 0.00769876 1.34555 -0.249881 
v 0.0230671 1.34555 -0.248934 
v 0.0383479 1.34555 -0.247041 
v 0.0534833 1.34555 -0.244212 
v 0.0684157 1.34555 -0.240456 
v 0.0830887 1.34555 -0.235789 
v 0.0974465 1.34555 -0.230226 
v 0.111435 1.34555 -0.223791 
v 0.125 1.34555 -0.216506 
v 0.138091 1.34555 -0.208401 
v 0.150659 1.34555 -0.199504 
v 0.162655 1.34555 -0.189851 
v 0.174033 1.34555 -0.179478 
v 0.184752 1.34555 -0.168424 
v 0.19477 1.34555 -0.156731 
v 0.204049 1.34555 -0.144443 
v 0.212554 1.34555 -0.131608 
v 0.220253 1.34555 -0.118273 
v 0.227116 1.34555 -0.10449 
v 0.233118 1.34555 -0.0903104 
v 0.238236 1.34555 -0.0757882 
v 0.242449 1.34555 -0.0609784 
v 0.245743 1.34555 -0.0459374 
v 0.248105 1.34555 -0.0307221 
v 0.249526 1.34555 -0.0153902 
v 0.25 1.34555 -5.85728e-16 
v 0.249526 1.34555 0.0153902 
v 0.248105 1.34555 0.0307221 
v 0.245743 1.34555 0.0459374 
v 0.242449 1.34555 0.0609784 
v 0.238236 1.34555 0.0757882 
v 0.233118 1.34555 0.0903104 
v 0.227116 1.34555 0.10449 
v 0.220253 1.34555 0.118273 
v 0.212554 1.34555 0.131608 
v 0.204049 1.34555 0.144443 
v 0.19477 1.34555 0.156731 
v 0.184752 1.34555 0.168424 
v 0.174033 1.34555 0.179478 
v 0.162655 1.34555 0.189851 
v 0.150659 1.34555 0.199504 
v 0.138091 1.34555 0.208401 
v 0.125 1.34555 0.216506 
v 0.111435 1.34555 0.223791 
v 0.0974465 1.34555 0.230226 
v 0.0830887 1.34555 0.235789 
v 0.0684157 1.34555 0.240456 
v 0.0534833 1.34555 0.244212 
v 0.0383479 1.34555 0.247041 
v 0.0230671 1.34555 0.248934 
v 0.00769876 1.34555 0.249881 
v -0.00769876 1.34555 0.249881 
v -0.0230671 1.34555 0.248934 
v -0.0383479 1.34555 0.247041 
v -0.0534833 1.34555 0.244212 
v -0.0684157 1.34555 0.240456 
v -0.0830887 1.34555 0.235789 
v -0.0974465 1.34555 0.230226 
v -0.111435 1.34555 0.223791 
v -0.125 1.34555 0.216506 
v -0.138091 1.34555 0.208401 
v -0.150659 1.34555 0.199504 
v -0.162655 1.34555 0.189851 
v -0.174033 1.34555 0.179478 
v -0.184752 1.34555 0.168424 
v -0.19477 1.34555 0.156731 
v -0.204049 1.34555 0.144443 
v -0.212554 1.34555 0.131608 
v -0.220253 1.34555 0.118273 
v -0.227116 1.34555 0.10449 
v -0.233118 1.34555 0.0903104 
v -0.238236 1.34555 0.0757882 
v -0.242449 1.34555 0.0609784 
v -0.245743 1.34555 0.0459374 
v -0.248105 1.34555 0.0307221 
v -0.249526 1.34555 0.0153902 
v -0.25 1.34555 0 
v 0 1.34555 0 
v 0 1.61245 0 
vn 0 -1 0 
vn -0.729835 0.683623 0 
vn -0.728451 0.683623 0.0449293 
vn -0.729489 0.683623 0.0224753 
vn -0.724303 0.683623 0.0896882 
vn -0.726722 0.683623 0.0673407 
vn -0.717408 0.683623 0.134107 
vn -0.721198 0.683623 0.111951 
vn -0.707792 0.683623 0.178017 
vn -0.712938 0.683623 0.156136 
vn -0.69549 0.683623 0.221251 
vn -0.701974 0.683623 0.199729 
vn -0.680551 0.683623 0.263647 
vn -0.688347 0.683623 0.242564 
vn -0.66303 0.683623 0.305042 
vn -0.672109 0.683623 0.284479 
vn -0.642993 0.683623 0.34528 
vn -0.653321 0.683623 0.325315 
vn -0.620518 0.683623 0.384209 
vn -0.632056 0.683623 0.364917 
vn -0.595689 0.683623 0.421679 
vn -0.608392 0.683623 0.403135 
vn -0.5686 0.683623 0.457551 
vn -0.582421 0.683623 0.439824 
vn -0.539354 0.683623 0.491687 
vn -0.55424 0.683623 0.474844 
vn -0.508063 0.683623 0.523957 
vn -0.523957 0.683623 0.508063 
vn -0.474844 0.683623 0.55424 
vn -0.491687 0.683623 0.539354 
vn -0.439824 0.683623 0.582421 
vn -0.457551 0.683623 0.5686 
vn -0.403135 0.683623 0.608392 
vn -0.421679 0.683623 0.595689 
vn -0.364917 0.683623 0.632056 
vn -0.384209 0.683623 0.620518 
vn -0.325315 0.683623 0.653321 
vn -0.34528 0.683623 0.642993 
vn -0.284479 0.683623 0.672109 
vn -0.305042 0.683623 0.66303 
vn -0.242564 0.683623 0.688347 
vn -0.263647 0.683623 0.680551 
vn -0.199729 0.683623 0.701974 
vn -0.221251 0.683623 0.69549 
vn -0.156136 0.683623 0.712938 
vn -0.178017 0.683623 0.707792 
vn -0.111951 0.683623 0.721198 
vn -0.134107 0.683623 0.717408 
vn -0.0673407 0.683623 0.726722 
vn -0.0896882 0.683623 0.724303 
vn -0.0224753 0.683623 0.729489 
vn -0.0449293 0.683623 0.728451 
vn 0.0224753 0.683623 0.729489 
vn 4.67163e-15 0.683623 0.729835 
vn 0.0673407 0.683623 0.726722 
vn 0.0449293 0.683623 0.728451 
vn 0.111951 0.683623 0.721198 
vn 0.0896882 0.683623 0.724303 
vn 0.156136 0.683623 0.712938 
vn 0.134107 0.683623 0.717408 
vn 0.199729 0.683623 0.701974 
vn 0.178017 0.683623 0.707792 
vn 0.242564 0.683623 0.688347 
vn 0.221251 0.683623 0.69549 
vn 0.284479 0.683623 0.672109 
vn 0.263647 0.683623 0.680551 
vn 0.325315 0.683623 0.653321 
vn 0.305042 0.683623 0.66303 
vn 0.364917 0.683623 0.632056 
vn 0.34528 0.683623 0.642993 
vn 0.403135 0.683623 0.608392 
vn 0.384209 0.683623 0.620518 
vn 0.439824 0.683623 0.582421 
vn 0.421679 0.683623 0.595689 
vn 0.474844 0.683623 0.55424 
vn 0.457551 0.683623 0.5686 
vn 0.508063 0.683623 0.523957 
vn 0.491687 0.683623 0.539354 
vn 0.539354 0.683623 0.491687 
vn 0.523957 0.683623 0.508063 
vn 0.5686 0.683623 0.457551 
vn 0.55424 0.683623 0.474844 
vn 0.595689 0.683623 0.421679 
vn 0.582421 0.683623 0.439824 
vn 0.620518 0.683623 0.384209 
vn 0.608392 0.683623 0.403135 
vn 0.642993 0.683623 0.34528 
vn 0.632056 0.683623 0.364917 
vn 0.66303 0.683623 0.305042 
vn 0.653321 0.683623 0.325315 
vn 0.680551 0.683623 0.263647 
vn 0.672109 0.683623 0.284479 
vn 0.69549 0.683623 0.221251 
vn 0.688347 0.683623 0.242564 
vn 0.707792 0.683623 0.178017 
vn 0.701974 0.683623 0.199729 
vn 0.717408 0.683623 0.134107 
vn 0.712938 0.683623 0.156136 
vn 0.724303 0.683623 0.0896882 
vn 0.721198 0.683623 0.111951 
vn 0.728451 0.683623 0.0449293 
vn 0.726722 0.683623 0.0673407 
vn 0.729835 0.683623 -9.62207e-17 
vn 0.729489 0.683623 0.0224753 
vn 0.728451 0.683623 -0.0449293 
vn 0.729489 0.683623 -0.0224753 
vn 0.724303 0.683623 -0.0896882 
vn 0.726722 0.683623 -0.0673407 
vn 0.717408 0.683623 -0.134107 
vn 0.721198 0.683623 -0.111951 
vn 0.707792 0.683623 -0.178017 
vn 0.712938 0.683623 -0.156136 
vn 0.69549 0.683623 -0.221251 
vn 0.701974 0.683623 -0.199729 
vn 0.680551 0.683623 -0.263647 
vn 0.688347 0.683623 -0.242564 
vn 0.66303 0.683623 -0.305042 
vn 0.672109 0.683623 -0.284479 
vn 0.642993 0.683623 -0.34528 
vn 0.653321 0.683623 -0.325315 
vn 0.620518 0.683623 -0.384209 
vn 0.632056 0.683623 -0.364917 
vn 0.595689 0.683623 -0.421679 
vn 0.608392 0.683623 -0.403135 
vn 0.5686 0.683623 -0.457551 
vn 0.582421 0.683623 -0.439824 
vn 0.539354 0.683623 -0.491687 
vn 0.55424 0.683623 -0.474844 
vn 0.508063 0.683623 -0.523957 
vn 0.523957 0.683623 -0.508063 
vn 0.474844 0.683623 -0.55424 
vn 0.491687 0.683623 -0.539354 
vn 0.439824 0.683623 -0.582421 
vn 0.457551 0.683623 -0.5686 
vn 0.403135 0.683623 -0.608392 
vn 0.421679 0.683623 -0.595689 
vn 0.364917 0.683623 -0.632056 
vn 0.384209 0.683623 -0.620518 
vn 0.325315 0.683623 -0.653321 
vn 0.34528 0.683623 -0.642993 
vn 0.284479 0.683623 -0.672109 
vn 0.305042 0.683623 -0.66303 
vn 0.242564 0.683623 -0.688347 
vn 0.263647 0.683623 -0.680551 
vn 0.199729 0.683623 -0.701974 
vn 0.221251 0.683623 -0.69549 
vn 0.156136 0.683623 -0.712938 
vn 0.178017 0.683623 -0.707792 
vn 0.111951 0.683623 -0.721198 
vn 0.134107 0.683623 -0.717408 
vn 0.0673407 0.683623 -0.726722 
vn 0.0896882 0.683623 -0.724303 
vn 0.0224753 0.683623 -0.729489 
vn 0.0449293 0.683623 -0.728451 
vn -0.0224753 0.683623 -0.729489 
vn 6.03534e-16 0.683623 -0.729835 
vn -0.0673407 0.683623 -0.726722 
vn -0.0449293 0.683623 -0.728451 
vn -0.111951 0.683623 -0.721198 
vn -0.0896882 0.683623 -0.724303 
vn -0.156136 0.683623 -0.712938 
vn -0.134107 0.683623 -0.717408 
vn -0.199729 0.683623 -0.701974 
vn -0.178017 0.683623 -0.707792 
vn -0.242564 0.683623 -0.688347 
vn -0.221251 0.683623 -0.69549 
vn -0.284479 0.683623 -0.672109 
vn -0.263647 0.683623 -0.680551 
vn -0.325315 0.683623 -0.653321 
vn -0.305042 0.683623 -0.66303 
vn -0.364917 0.683623 -0.632056 
vn -0.34528 0.683623 -0.642993 
vn -0.403135 0.683623 -0.608392 
vn -0.384209 0.683623 -0.620518 
vn -0.439824 0.683623 -0.582421 
vn -0.421679 0.683623 -0.595689 
vn -0.474844 0.683623 -0.55424 
vn -0.457551 0.683623 -0.5686 
vn -0.508063 0.683623 -0.523957 
vn -0.491687 0.683623 -0.539354 
vn -0.539354 0.683623 -0.491687 
vn -0.523957 0.683623 -0.508063 
vn -0.5686 0.683623 -0.457551 
vn -0.55424 0.683623 -0.474844 
vn -0.595689 0.683623 -0.421679 
vn -0.582421 0.683623 -0.439824 
vn -0.620518 0.683623 -0.384209 
vn -0.608392 0.683623 -0.403135 
vn -0.642993 0.683623 -0.34528 
vn -0.632056 0.683623 -0.364917 
vn -0.66303 0.683623 -0.305042 
vn -0.653321 0.683623 -0.325315 
vn -0.680551 0.683623 -0.263647 
vn -0.672109 0.683623 -0.284479 
vn -0.69549 0.683623 -0.221251 
vn -0.688347 0.683623 -0.242564 
vn -0.707792 0.683623 -0.178017 
vn -0.701974 0.683623 -0.199729 
vn -0.717408 0.683623 -0.134107 
vn -0.712938 0.683623 -0.156136 
vn -0.724303 0.683623 -0.0896882 
vn -0.721198 0.683623 -0.111951 
vn -0.728451 0.683623 -0.0449293 
vn -0.726722 0.683623 -0.0673407 
vn -0.729489 0.683623 -0.0224753 
usemtl 0.768627_0.886275_0.952941_0.000000_0.000000
o mesh0
f 103//1 1//1 2//1 
f 2//1 3//1 103//1 
f 3//1 4//1 103//1 
f 4//1 5//1 103//1 
f 5//1 6//1 103//1 
f 6//1 7//1 103//1 
f 7//1 8//1 103//1 
f 8//1 9//1 103//1 
f 9//1 10//1 103//1 
f 10//1 11//1 103//1 
f 11//1 12//1 103//1 
f 12//1 13//1 103//1 
f 13//1 14//1 103//1 
f 14//1 15//1 103//1 
f 15//1 16//1 103//1 
f 16//1 17//1 103//1 
f 17//1 18//1 103//1 
f 18//1 19//1 103//1 
f 19//1 20//1 103//1 
f 20//1 21//1 103//1 
f 21//1 22//1 103//1 
f 22//1 23//1 103//1 
f 23//1 24//1 103//1 
f 24//1 25//1 103//1 
f 25//1 26//1 103//1 
f 26//1 27//1 103//1 
f 27//1 28//1 103//1 
f 28//1 29//1 103//1 
f 29//1 30//1 103//1 
f 30//1 31//1 103//1 
f 31//1 32//1 103//1 
f 32//1 33//1 103//1 
f 33//1 34//1 103//1 
f 34//1 35//1 103//1 
f 35//1 36//1 103//1 
f 36//1 37//1 103//1 
f 37//1 38//1 103//1 
f 38//1 39//1 103//1 
f 39//1 40//1 103//1 
f 40//1 41//1 103//1 
f 41//1 42//1 103//1 
f 42//1 43//1 103//1 
f 43//1 44//1 103//1 
f 44//1 45//1 103//1 
f 45//1 46//1 103//1 
f 46//1 47//1 103//1 
f 47//1 48//1 103//1 
f 48//1 49//1 103//1 
f 49//1 50//1 103//1 
f 50//1 51//1 103//1 
f 51//1 52//1 103//1 
f 52//1 53//1 103//1 
f 53//1 54//1 103//1 
f 54//1 55//1 103//1 
f 55//1 56//1 103//1 
f 56//1 57//1 103//1 
f 57//1 58//1 103//1 
f 58//1 59//1 103//1 
f 59//1 60//1 103//1 
f 60//1 61//1 103//1 
f 61//1 62//1 103//1 
f 62//1 63//1 103//1 
f 63//1 64//1 103//1 
f 64//1 65//1 103//1 
f 65//1 66//1 103//1 
f 66//1 67//1 103//1 
f 67//1 68//1 103//1 
f 68//1 69//1 103//1 
f 69//1 70//1 103//1 
f 70//1 71//1 103//1 
f 71//1 72//1 103//1 
f 72//1 73//1 103//1 
f 73//1 74//1 103//1 
f 74//1 75//1 103//1 
f 75//1 76//1 103//1 
f 76//1 77//1 103//1 
f 77//1 78//1 103//1 
f 78//1 79//1 103//1 
f 79//1 80//1 103//1 
f 80//1 81//1 103//1 
f 81//1 82//1 103//1 
f 82//1 83//1 103//1 
f 83//1 84//1 103//1 
f 84//1 85//1 103//1 
f 85//1 86//1 103//1 
f 86//1 87//1 103//1 
f 87//1 88//1 103//1 
f 88//1 89//1 103//1 
f 89//1 90//1 103//1 
f 90//1 91//1 103//1 
f 91//1 92//1 103//1 
f 92//1 93//1 103//1 
f 93//1 94//1 103//1 
f 94//1 95//1 103//1 
f 95//1 96//1 103//1 
f 96//1 97//1 103//1 
f 97//1 98//1 103//1 
f 98//1 99//1 103//1 
f 99//1 100//1 103//1 
f 100//1 101//1 103//1 
f 101//1 102//1 103//1 
f 102//1 1//1 103//1 
o mesh1
f 102//2 101//3 104//4 
f 101//3 100//5 104//6 
f 100//5 99//7 104//8 
f 99//7 98//9 104//10 
f 98//9 97//11 104//12 
f 97//11 96//13 104//14 
f 96//13 95//15 104//16 
f 95//15 94//17 104//18 
f 94//17 93//19 104//20 
f 93//19 92//21 104//22 
f 92//21 91//23 104//24 
f 91//23 90//25 104//26 
f 90//25 89//27 104//28 
f 89//27 88//29 104//30 
f 88//29 87//31 104//32 
f 87//31 86//33 104//34 
f 86//33 85//35 104//36 
f 85//35 84//37 104//38 
f 84//37 83//39 104//40 
f 83//39 82//41 104//42 
f 82//41 81//43 104//44 
f 81//43 80//45 104//46 
f 80//45 79//47 104//48 
f 79//47 78//49 104//50 
f 78//49 77//51 104//52 
f 77//51 76//53 104//54 
f 76//53 75//55 104//56 
f 75//55 74//57 104//58 
f 74//57 73//59 104//60 
f 73//59 72//61 104//62 
f 72//61 71//63 104//64 
f 71//63 70//65 104//66 
f 70//65 69//67 104//68 
f 69//67 68//69 104//70 
f 68//69 67//71 104//72 
f 67//71 66//73 104//74 
f 66//73 65//75 104//76 
f 65//75 64//77 104//78 
f 64//77 63//79 104//80 
f 63//79 62//81 104//82 
f 62//81 61//83 104//84 
f 61//83 60//85 104//86 
f 60//85 59//87 104//88 
f 59//87 58//89 104//90 
f 58//89 57//91 104//92 
f 57//91 56//93 104//94 
f 56//93 55//95 104//96 
f 55//95 54//97 104//98 
f 54//97 53//99 104//100 
f 53//99 52//101 104//102 
f 52//101 51//103 104//104 
f 51//103 50//105 104//106 
f 50//105 49//107 104//108 
f 49//107 48//109 104//110 
f 48//109 47//111 104//112 
f 47//111 46//113 104//114 
f 46//113 45//115 104//116 
f 45//115 44//117 104//118 
f 44//117 43//119 104//120 
f 43//119 42//121 104//122 
f 42//121 41//123 104//124 
f 41//123 40//125 104//126 
f 40//125 39//127 104//128 
f 39//127 38//129 104//130 
f 38//129 37//131 104//132 
f 37//131 36//133 104//134 
f 36//133 35//135 104//136 
f 35//135 34//137 104//138 
f 34//137 33//139 104//140 
f 33//139 32//141 104//142 
f 32//141 31//143 104//144 
f 31//143 30//145 104//146 
f 30//145 29//147 104//148 
f 29//147 28//149 104//150 
f 28//149 27//151 104//152 
f 27//151 26//153 104//154 
f 26//153 25//155 104//156 
f 25//155 24//157 104//158 
f 24//157 23//159 104//160 
f 23//159 22//161 104//162 
f 22//161 21//163 104//164 
f 21//163 20//165 104//166 
f 20//165 19//167 104//168 
f 19//167 18//169 104//170 
f 18//169 17//171 104//172 
f 17//171 16//173 104//174 
f 16//173 15//175 104//176 
f 15//175 14//177 104//178 
f 14//177 13//179 104//180 
f 13//179 12//181 104//182 
f 12//181 11//183 104//184 
f 11//183 10//185 104//186 
f 10//185 9//187 104//188 
f 9//187 8//189 104//190 
f 8//189 7//191 104//192 
f 7//191 6//193 104//194 
f 6//193 5//195 104//196 
f 5//195 4//197 104//198 
f 4//197 3//199 104//200 
f 3//199 2//201 104//202 
f 2//201 1//203 104//204 
f 1//203 102//2 104//205 
