# OBJ generated by ONSHAPE BY PTC INC, 1.213 Units = meters
mtllib top_cones - cone_1.mtl
g cone_1
v -0.249526 1 -0.0153902 
v -0.248105 1 -0.0307221 
v -0.245743 1 -0.0459374 
v -0.242449 1 -0.0609784 
v -0.238236 1 -0.0757882 
v -0.233118 1 -0.0903104 
v -0.227116 1 -0.10449 
v -0.220253 1 -0.118273 
v -0.212554 1 -0.131608 
v -0.204049 1 -0.144443 
v -0.19477 1 -0.156731 
v -0.184752 1 -0.168424 
v -0.174033 1 -0.179478 
v -0.162655 1 -0.189851 
v -0.150659 1 -0.199504 
v -0.138091 1 -0.208401 
v -0.125 1 -0.216506 
v -0.111435 1 -0.223791 
v -0.0974465 1 -0.230226 
v -0.0830887 1 -0.235789 
v -0.0684157 1 -0.240456 
v -0.0534833 1 -0.244212 
v -0.0383479 1 -0.247041 
v -0.0230671 1 -0.248934 
v -0.00769876 1 -0.249881 
v 0.00769876 1 -0.249881 
v 0.0230671 1 -0.248934 
v 0.0383479 1 -0.247041 
v 0.0534833 1 -0.244212 
v 0.0684157 1 -0.240456 
v 0.0830887 1 -0.235789 
v 0.0974465 1 -0.230226 
v 0.111435 1 -0.223791 
v 0.125 1 -0.216506 
v 0.138091 1 -0.208401 
v 0.150659 1 -0.199504 
v 0.162655 1 -0.189851 
v 0.174033 1 -0.179478 
v 0.184752 1 -0.168424 
v 0.19477 1 -0.156731 
v 0.204049 1 -0.144443 
v 0.212554 1 -0.131608 
v 0.220253 1 -0.118273 
v 0.227116 1 -0.10449 
v 0.233118 1 -0.0903104 
v 0.238236 1 -0.0757882 
v 0.242449 1 -0.0609784 
v 0.245743 1 -0.0459374 
v 0.248105 1 -0.0307221 
v 0.249526 1 -0.0153902 
v 0.25 1 -5.85728e-16 
v 0.249526 1 0.0153902 
v 0.248105 1 0.0307221 
v 0.245743 1 0.0459374 
v 0.242449 1 0.0609784 
v 0.238236 1 0.0757882 
v 0.233118 1 0.0903104 
v 0.227116 1 0.10449 
v 0.220253 1 0.118273 
v 0.212554 1 0.131608 
v 0.204049 1 0.144443 
v 0.19477 1 0.156731 
v 0.184752 1 0.168424 
v 0.174033 1 0.179478 
v 0.162655 1 0.189851 
v 0.150659 1 0.199504 
v 0.138091 1 0.208401 
v 0.125 1 0.216506 
v 0.111435 1 0.223791 
v 0.0974465 1 0.230226 
v 0.0830887 1 0.235789 
v 0.0684157 1 0.240456 
v 0.0534833 1 0.244212 
v 0.0383479 1 0.247041 
v 0.0230671 1 0.248934 
v 0.00769876 1 0.249881 
v -0.00769876 1 0.249881 
v -0.0230671 1 0.248934 
v -0.0383479 1 0.247041 
v -0.0534833 1 0.244212 
v -0.0684157 1 0.240456 
v -0.0830887 1 0.235789 
v -0.0974465 1 0.230226 
v -0.111435 1 0.223791 
v -0.125 1 0.216506 
v -0.138091 1 0.208401 
v -0.150659 1 0.199504 
v -0.162655 1 0.189851 
v -0.174033 1 0.179478 
v -0.184752 1 0.168424 
v -0.19477 1 0.156731 
v -0.204049 1 0.144443 
v -0.212554 1 0.131608 
v -0.220253 1 0.118273 
v -0.227116 1 0.10449 
v -0.233118 1 0.0903104 
v -0.238236 1 0.0757882 
v -0.242449 1 0.0609784 
v -0.245743 1 0.0459374 
v -0.248105 1 0.0307221 
v -0.249526 1 0.0153902 
v -0.25 1 0 
v 0 1 0 
v -0.02 1.24555 4.89859e-18 
v -0.0199621 1.24555 -0.00123122 
v -0.0198484 1.24555 -0.00245777 
v -0.0196595 1.24555 -0.00367499 
v -0.0193959 1.24555 -0.00487827 
v -0.0190588 1.24555 -0.00606305 
v -0.0186494 1.24555 -0.00722483 
v -0.0181693 1.24555 -0.00835921 
v -0.0176202 1.24555 -0.00946187 
v -0.0170043 1.24555 -0.0105286 
v -0.0163239 1.24555 -0.0115555 
v -0.0155816 1.24555 -0.0125385 
v -0.0147802 1.24555 -0.0134739 
v -0.0139227 1.24555 -0.0143582 
v -0.0130124 1.24555 -0.0151881 
v -0.0120527 1.24555 -0.0159603 
v -0.0110473 1.24555 -0.016672 
v -0.01 1.24555 -0.0173205 
v -0.00891477 1.24555 -0.0179033 
v -0.00779572 1.24555 -0.0184181 
v -0.0066471 1.24555 -0.0188631 
v -0.00547326 1.24555 -0.0192365 
v -0.00427866 1.24555 -0.019537 
v -0.00306783 1.24555 -0.0197633 
v -0.00184537 1.24555 -0.0199147 
v -0.000615901 1.24555 -0.0199905 
v 0.000615901 1.24555 -0.0199905 
v 0.00184537 1.24555 -0.0199147 
v 0.00306783 1.24555 -0.0197633 
v 0.00427866 1.24555 -0.019537 
v 0.00547326 1.24555 -0.0192365 
v 0.0066471 1.24555 -0.0188631 
v 0.00779572 1.24555 -0.0184181 
v 0.00891477 1.24555 -0.0179033 
v 0.01 1.24555 -0.0173205 
v 0.0110473 1.24555 -0.016672 
v 0.0120527 1.24555 -0.0159603 
v 0.0130124 1.24555 -0.0151881 
v 0.0139227 1.24555 -0.0143582 
v 0.0147802 1.24555 -0.0134739 
v 0.0155816 1.24555 -0.0125385 
v 0.0163239 1.24555 -0.0115555 
v 0.0170043 1.24555 -0.0105286 
v 0.0176202 1.24555 -0.00946187 
v 0.0181693 1.24555 -0.00835921 
v 0.0186494 1.24555 -0.00722483 
v 0.0190588 1.24555 -0.00606305 
v 0.0193959 1.24555 -0.00487827 
v 0.0196595 1.24555 -0.00367499 
v 0.0198484 1.24555 -0.00245777 
v 0.0199621 1.24555 -0.00123122 
v 0.02 1.24555 -4.68582e-17 
v 0.0199621 1.24555 0.00123122 
v 0.0198484 1.24555 0.00245777 
v 0.0196595 1.24555 0.00367499 
v 0.0193959 1.24555 0.00487827 
v 0.0190588 1.24555 0.00606305 
v 0.0186494 1.24555 0.00722483 
v 0.0181693 1.24555 0.00835921 
v 0.0176202 1.24555 0.00946187 
v 0.0170043 1.24555 0.0105286 
v 0.0163239 1.24555 0.0115555 
v 0.0155816 1.24555 0.0125385 
v 0.0147802 1.24555 0.0134739 
v 0.0139227 1.24555 0.0143582 
v 0.0130124 1.24555 0.0151881 
v 0.0120527 1.24555 0.0159603 
v 0.0110473 1.24555 0.016672 
v 0.01 1.24555 0.0173205 
v 0.00891477 1.24555 0.0179033 
v 0.00779572 1.24555 0.0184181 
v 0.0066471 1.24555 0.0188631 
v 0.00547326 1.24555 0.0192365 
v 0.00427866 1.24555 0.019537 
v 0.00306783 1.24555 0.0197633 
v 0.00184537 1.24555 0.0199147 
v 0.000615901 1.24555 0.0199905 
v -0.000615901 1.24555 0.0199905 
v -0.00184537 1.24555 0.0199147 
v -0.00306783 1.24555 0.0197633 
v -0.00427866 1.24555 0.019537 
v -0.00547326 1.24555 0.0192365 
v -0.0066471 1.24555 0.0188631 
v -0.00779572 1.24555 0.0184181 
v -0.00891477 1.24555 0.0179033 
v -0.01 1.24555 0.0173205 
v -0.0110473 1.24555 0.016672 
v -0.0120527 1.24555 0.0159603 
v -0.0130124 1.24555 0.0151881 
v -0.0139227 1.24555 0.0143582 
v -0.0147802 1.24555 0.0134739 
v -0.0155816 1.24555 0.0125385 
v -0.0163239 1.24555 0.0115555 
v -0.0170043 1.24555 0.0105286 
v -0.0176202 1.24555 0.00946187 
v -0.0181693 1.24555 0.00835921 
v -0.0186494 1.24555 0.00722483 
v -0.0190588 1.24555 0.00606305 
v -0.0193959 1.24555 0.00487827 
v -0.0196595 1.24555 0.00367499 
v -0.0198484 1.24555 0.00245777 
v -0.0199621 1.24555 0.00123122 
v 0 1.24555 0 
vn 0 -1 0 
vn -0.729835 0.683623 0 
vn -0.728451 0.683623 -0.0449293 
vn -0.724303 0.683623 -0.0896882 
vn -0.717408 0.683623 -0.134107 
vn -0.707792 0.683623 -0.178017 
vn -0.69549 0.683623 -0.221251 
vn -0.680551 0.683623 -0.263647 
vn -0.66303 0.683623 -0.305042 
vn -0.642993 0.683623 -0.34528 
vn -0.620518 0.683623 -0.384209 
vn -0.595689 0.683623 -0.421679 
vn -0.5686 0.683623 -0.457551 
vn -0.539354 0.683623 -0.491687 
vn -0.508063 0.683623 -0.523957 
vn -0.474844 0.683623 -0.55424 
vn -0.439824 0.683623 -0.582421 
vn -0.403135 0.683623 -0.608392 
vn -0.364917 0.683623 -0.632056 
vn -0.325315 0.683623 -0.653321 
vn -0.284479 0.683623 -0.672109 
vn -0.242564 0.683623 -0.688347 
vn -0.199729 0.683623 -0.701974 
vn -0.156136 0.683623 -0.712938 
vn -0.111951 0.683623 -0.721198 
vn -0.0673407 0.683623 -0.726722 
vn -0.0224753 0.683623 -0.729489 
vn 0.0224753 0.683623 -0.729489 
vn 0.0673407 0.683623 -0.726722 
vn 0.111951 0.683623 -0.721198 
vn 0.156136 0.683623 -0.712938 
vn 0.199729 0.683623 -0.701974 
vn 0.242564 0.683623 -0.688347 
vn 0.284479 0.683623 -0.672109 
vn 0.325315 0.683623 -0.653321 
vn 0.364917 0.683623 -0.632056 
vn 0.403135 0.683623 -0.608392 
vn 0.439824 0.683623 -0.582421 
vn 0.474844 0.683623 -0.55424 
vn 0.508063 0.683623 -0.523957 
vn 0.539354 0.683623 -0.491687 
vn 0.5686 0.683623 -0.457551 
vn 0.595689 0.683623 -0.421679 
vn 0.620518 0.683623 -0.384209 
vn 0.642993 0.683623 -0.34528 
vn 0.66303 0.683623 -0.305042 
vn 0.680551 0.683623 -0.263647 
vn 0.69549 0.683623 -0.221251 
vn 0.707792 0.683623 -0.178017 
vn 0.717408 0.683623 -0.134107 
vn 0.724303 0.683623 -0.0896882 
vn 0.728451 0.683623 -0.0449293 
vn 0.729835 0.683623 -9.62207e-17 
vn 0.728451 0.683623 0.0449293 
vn 0.724303 0.683623 0.0896882 
vn 0.717408 0.683623 0.134107 
vn 0.707792 0.683623 0.178017 
vn 0.69549 0.683623 0.221251 
vn 0.680551 0.683623 0.263647 
vn 0.66303 0.683623 0.305042 
vn 0.642993 0.683623 0.34528 
vn 0.620518 0.683623 0.384209 
vn 0.595689 0.683623 0.421679 
vn 0.5686 0.683623 0.457551 
vn 0.539354 0.683623 0.491687 
vn 0.508063 0.683623 0.523957 
vn 0.474844 0.683623 0.55424 
vn 0.439824 0.683623 0.582421 
vn 0.403135 0.683623 0.608392 
vn 0.364917 0.683623 0.632056 
vn 0.325315 0.683623 0.653321 
vn 0.284479 0.683623 0.672109 
vn 0.242564 0.683623 0.688347 
vn 0.199729 0.683623 0.701974 
vn 0.156136 0.683623 0.712938 
vn 0.111951 0.683623 0.721198 
vn 0.0673407 0.683623 0.726722 
vn 0.0224753 0.683623 0.729489 
vn -0.0224753 0.683623 0.729489 
vn -0.0673407 0.683623 0.726722 
vn -0.111951 0.683623 0.721198 
vn -0.156136 0.683623 0.712938 
vn -0.199729 0.683623 0.701974 
vn -0.242564 0.683623 0.688347 
vn -0.284479 0.683623 0.672109 
vn -0.325315 0.683623 0.653321 
vn -0.364917 0.683623 0.632056 
vn -0.403135 0.683623 0.608392 
vn -0.439824 0.683623 0.582421 
vn -0.474844 0.683623 0.55424 
vn -0.508063 0.683623 0.523957 
vn -0.539354 0.683623 0.491687 
vn -0.5686 0.683623 0.457551 
vn -0.595689 0.683623 0.421679 
vn -0.620518 0.683623 0.384209 
vn -0.642993 0.683623 0.34528 
vn -0.66303 0.683623 0.305042 
vn -0.680551 0.683623 0.263647 
vn -0.69549 0.683623 0.221251 
vn -0.707792 0.683623 0.178017 
vn -0.717408 0.683623 0.134107 
vn -0.724303 0.683623 0.0896882 
vn -0.728451 0.683623 0.0449293 
vn 0 1 0 
usemtl 0.917647_0.917647_0.917647_0.000000_0.000000
o mesh0
f 103//1 1//1 2//1 
f 2//1 3//1 103//1 
f 3//1 4//1 103//1 
f 4//1 5//1 103//1 
f 5//1 6//1 103//1 
f 6//1 7//1 103//1 
f 7//1 8//1 103//1 
f 8//1 9//1 103//1 
f 9//1 10//1 103//1 
f 10//1 11//1 103//1 
f 11//1 12//1 103//1 
f 12//1 13//1 103//1 
f 13//1 14//1 103//1 
f 14//1 15//1 103//1 
f 15//1 16//1 103//1 
f 16//1 17//1 103//1 
f 17//1 18//1 103//1 
f 18//1 19//1 103//1 
f 19//1 20//1 103//1 
f 20//1 21//1 103//1 
f 21//1 22//1 103//1 
f 22//1 23//1 103//1 
f 23//1 24//1 103//1 
f 24//1 25//1 103//1 
f 25//1 26//1 103//1 
f 26//1 27//1 103//1 
f 27//1 28//1 103//1 
f 28//1 29//1 103//1 
f 29//1 30//1 103//1 
f 30//1 31//1 103//1 
f 31//1 32//1 103//1 
f 32//1 33//1 103//1 
f 33//1 34//1 103//1 
f 34//1 35//1 103//1 
f 35//1 36//1 103//1 
f 36//1 37//1 103//1 
f 37//1 38//1 103//1 
f 38//1 39//1 103//1 
f 39//1 40//1 103//1 
f 40//1 41//1 103//1 
f 41//1 42//1 103//1 
f 42//1 43//1 103//1 
f 43//1 44//1 103//1 
f 44//1 45//1 103//1 
f 45//1 46//1 103//1 
f 46//1 47//1 103//1 
f 47//1 48//1 103//1 
f 48//1 49//1 103//1 
f 49//1 50//1 103//1 
f 50//1 51//1 103//1 
f 51//1 52//1 103//1 
f 52//1 53//1 103//1 
f 53//1 54//1 103//1 
f 54//1 55//1 103//1 
f 55//1 56//1 103//1 
f 56//1 57//1 103//1 
f 57//1 58//1 103//1 
f 58//1 59//1 103//1 
f 59//1 60//1 103//1 
f 60//1 61//1 103//1 
f 61//1 62//1 103//1 
f 62//1 63//1 103//1 
f 63//1 64//1 103//1 
f 64//1 65//1 103//1 
f 65//1 66//1 103//1 
f 66//1 67//1 103//1 
f 67//1 68//1 103//1 
f 68//1 69//1 103//1 
f 69//1 70//1 103//1 
f 70//1 71//1 103//1 
f 71//1 72//1 103//1 
f 72//1 73//1 103//1 
f 73//1 74//1 103//1 
f 74//1 75//1 103//1 
f 75//1 76//1 103//1 
f 76//1 77//1 103//1 
f 77//1 78//1 103//1 
f 78//1 79//1 103//1 
f 79//1 80//1 103//1 
f 80//1 81//1 103//1 
f 81//1 82//1 103//1 
f 82//1 83//1 103//1 
f 83//1 84//1 103//1 
f 84//1 85//1 103//1 
f 85//1 86//1 103//1 
f 86//1 87//1 103//1 
f 87//1 88//1 103//1 
f 88//1 89//1 103//1 
f 89//1 90//1 103//1 
f 90//1 91//1 103//1 
f 91//1 92//1 103//1 
f 92//1 93//1 103//1 
f 93//1 94//1 103//1 
f 94//1 95//1 103//1 
f 95//1 96//1 103//1 
f 96//1 97//1 103//1 
f 97//1 98//1 103//1 
f 98//1 99//1 103//1 
f 99//1 100//1 103//1 
f 100//1 101//1 103//1 
f 101//1 102//1 103//1 
f 102//1 1//1 103//1 
o mesh1
f 102//2 104//2 105//3 
f 1//3 105//3 106//4 
f 2//4 106//4 107//5 
f 3//5 107//5 108//6 
f 4//6 108//6 109//7 
f 5//7 109//7 110//8 
f 6//8 110//8 111//9 
f 7//9 111//9 112//10 
f 8//10 112//10 113//11 
f 9//11 113//11 114//12 
f 10//12 114//12 115//13 
f 11//13 115//13 116//14 
f 12//14 116//14 117//15 
f 13//15 117//15 118//16 
f 14//16 118//16 119//17 
f 15//17 119//17 120//18 
f 16//18 120//18 121//19 
f 17//19 121//19 122//20 
f 18//20 122//20 123//21 
f 19//21 123//21 124//22 
f 20//22 124//22 125//23 
f 21//23 125//23 126//24 
f 22//24 126//24 127//25 
f 23//25 127//25 128//26 
f 24//26 128//26 129//27 
f 25//27 129//27 130//28 
f 26//28 130//28 131//29 
f 27//29 131//29 132//30 
f 28//30 132//30 133//31 
f 29//31 133//31 134//32 
f 30//32 134//32 135//33 
f 31//33 135//33 136//34 
f 32//34 136//34 137//35 
f 33//35 137//35 138//36 
f 34//36 138//36 139//37 
f 35//37 139//37 140//38 
f 36//38 140//38 141//39 
f 37//39 141//39 142//40 
f 38//40 142//40 143//41 
f 39//41 143//41 144//42 
f 40//42 144//42 145//43 
f 41//43 145//43 146//44 
f 42//44 146//44 147//45 
f 43//45 147//45 148//46 
f 44//46 148//46 149//47 
f 45//47 149//47 150//48 
f 46//48 150//48 151//49 
f 47//49 151//49 152//50 
f 48//50 152//50 153//51 
f 49//51 153//51 154//52 
f 50//52 154//52 155//53 
f 51//53 155//53 156//54 
f 52//54 156//54 157//55 
f 53//55 157//55 158//56 
f 54//56 158//56 159//57 
f 55//57 159//57 160//58 
f 56//58 160//58 161//59 
f 57//59 161//59 162//60 
f 58//60 162//60 163//61 
f 59//61 163//61 164//62 
f 60//62 164//62 165//63 
f 61//63 165//63 166//64 
f 62//64 166//64 167//65 
f 63//65 167//65 168//66 
f 64//66 168//66 169//67 
f 65//67 169//67 170//68 
f 66//68 170//68 171//69 
f 67//69 171//69 172//70 
f 68//70 172//70 173//71 
f 69//71 173//71 174//72 
f 70//72 174//72 175//73 
f 71//73 175//73 176//74 
f 72//74 176//74 177//75 
f 73//75 177//75 178//76 
f 74//76 178//76 179//77 
f 75//77 179//77 180//78 
f 76//78 180//78 181//79 
f 77//79 181//79 182//80 
f 78//80 182//80 183//81 
f 79//81 183//81 184//82 
f 80//82 184//82 185//83 
f 81//83 185//83 186//84 
f 82//84 186//84 187//85 
f 83//85 187//85 188//86 
f 84//86 188//86 189//87 
f 85//87 189//87 190//88 
f 86//88 190//88 191//89 
f 87//89 191//89 192//90 
f 88//90 192//90 193//91 
f 89//91 193//91 194//92 
f 90//92 194//92 195//93 
f 91//93 195//93 196//94 
f 92//94 196//94 197//95 
f 93//95 197//95 198//96 
f 94//96 198//96 199//97 
f 95//97 199//97 200//98 
f 96//98 200//98 201//99 
f 97//99 201//99 202//100 
f 98//100 202//100 203//101 
f 99//101 203//101 204//102 
f 100//102 204//102 205//103 
f 101//103 205//103 104//2 
f 104//2 102//2 101//103 
f 205//103 101//103 100//102 
f 204//102 100//102 99//101 
f 203//101 99//101 98//100 
f 202//100 98//100 97//99 
f 201//99 97//99 96//98 
f 200//98 96//98 95//97 
f 199//97 95//97 94//96 
f 198//96 94//96 93//95 
f 197//95 93//95 92//94 
f 196//94 92//94 91//93 
f 195//93 91//93 90//92 
f 194//92 90//92 89//91 
f 193//91 89//91 88//90 
f 192//90 88//90 87//89 
f 191//89 87//89 86//88 
f 190//88 86//88 85//87 
f 189//87 85//87 84//86 
f 188//86 84//86 83//85 
f 187//85 83//85 82//84 
f 186//84 82//84 81//83 
f 185//83 81//83 80//82 
f 184//82 80//82 79//81 
f 183//81 79//81 78//80 
f 182//80 78//80 77//79 
f 181//79 77//79 76//78 
f 180//78 76//78 75//77 
f 179//77 75//77 74//76 
f 178//76 74//76 73//75 
f 177//75 73//75 72//74 
f 176//74 72//74 71//73 
f 175//73 71//73 70//72 
f 174//72 70//72 69//71 
f 173//71 69//71 68//70 
f 172//70 68//70 67//69 
f 171//69 67//69 66//68 
f 170//68 66//68 65//67 
f 169//67 65//67 64//66 
f 168//66 64//66 63//65 
f 167//65 63//65 62//64 
f 166//64 62//64 61//63 
f 165//63 61//63 60//62 
f 164//62 60//62 59//61 
f 163//61 59//61 58//60 
f 162//60 58//60 57//59 
f 161//59 57//59 56//58 
f 160//58 56//58 55//57 
f 159//57 55//57 54//56 
f 158//56 54//56 53//55 
f 157//55 53//55 52//54 
f 156//54 52//54 51//53 
f 155//53 51//53 50//52 
f 154//52 50//52 49//51 
f 153//51 49//51 48//50 
f 152//50 48//50 47//49 
f 151//49 47//49 46//48 
f 150//48 46//48 45//47 
f 149//47 45//47 44//46 
f 148//46 44//46 43//45 
f 147//45 43//45 42//44 
f 146//44 42//44 41//43 
f 145//43 41//43 40//42 
f 144//42 40//42 39//41 
f 143//41 39//41 38//40 
f 142//40 38//40 37//39 
f 141//39 37//39 36//38 
f 140//38 36//38 35//37 
f 139//37 35//37 34//36 
f 138//36 34//36 33//35 
f 137//35 33//35 32//34 
f 136//34 32//34 31//33 
f 135//33 31//33 30//32 
f 134//32 30//32 29//31 
f 133//31 29//31 28//30 
f 132//30 28//30 27//29 
f 131//29 27//29 26//28 
f 130//28 26//28 25//27 
f 129//27 25//27 24//26 
f 128//26 24//26 23//25 
f 127//25 23//25 22//24 
f 126//24 22//24 21//23 
f 125//23 21//23 20//22 
f 124//22 20//22 19//21 
f 123//21 19//21 18//20 
f 122//20 18//20 17//19 
f 121//19 17//19 16//18 
f 120//18 16//18 15//17 
f 119//17 15//17 14//16 
f 118//16 14//16 13//15 
f 117//15 13//15 12//14 
f 116//14 12//14 11//13 
f 115//13 11//13 10//12 
f 114//12 10//12 9//11 
f 113//11 9//11 8//10 
f 112//10 8//10 7//9 
f 111//9 7//9 6//8 
f 110//8 6//8 5//7 
f 109//7 5//7 4//6 
f 108//6 4//6 3//5 
f 107//5 3//5 2//4 
f 106//4 2//4 1//3 
f 105//3 1//3 102//2 
o mesh2
f 206//104 205//104 204//104 
f 204//104 203//104 206//104 
f 203//104 202//104 206//104 
f 202//104 201//104 206//104 
f 201//104 200//104 206//104 
f 200//104 199//104 206//104 
f 199//104 198//104 206//104 
f 198//104 197//104 206//104 
f 197//104 196//104 206//104 
f 196//104 195//104 206//104 
f 195//104 194//104 206//104 
f 194//104 193//104 206//104 
f 193//104 192//104 206//104 
f 192//104 191//104 206//104 
f 191//104 190//104 206//104 
f 190//104 189//104 206//104 
f 189//104 188//104 206//104 
f 188//104 187//104 206//104 
f 187//104 186//104 206//104 
f 186//104 185//104 206//104 
f 185//104 184//104 206//104 
f 184//104 183//104 206//104 
f 183//104 182//104 206//104 
f 182//104 181//104 206//104 
f 181//104 180//104 206//104 
f 180//104 179//104 206//104 
f 179//104 178//104 206//104 
f 178//104 177//104 206//104 
f 177//104 176//104 206//104 
f 176//104 175//104 206//104 
f 175//104 174//104 206//104 
f 174//104 173//104 206//104 
f 173//104 172//104 206//104 
f 172//104 171//104 206//104 
f 171//104 170//104 206//104 
f 170//104 169//104 206//104 
f 169//104 168//104 206//104 
f 168//104 167//104 206//104 
f 167//104 166//104 206//104 
f 166//104 165//104 206//104 
f 165//104 164//104 206//104 
f 164//104 163//104 206//104 
f 163//104 162//104 206//104 
f 162//104 161//104 206//104 
f 161//104 160//104 206//104 
f 160//104 159//104 206//104 
f 159//104 158//104 206//104 
f 158//104 157//104 206//104 
f 157//104 156//104 206//104 
f 156//104 155//104 206//104 
f 155//104 154//104 206//104 
f 154//104 153//104 206//104 
f 153//104 152//104 206//104 
f 152//104 151//104 206//104 
f 151//104 150//104 206//104 
f 150//104 149//104 206//104 
f 149//104 148//104 206//104 
f 148//104 147//104 206//104 
f 147//104 146//104 206//104 
f 146//104 145//104 206//104 
f 145//104 144//104 206//104 
f 144//104 143//104 206//104 
f 143//104 142//104 206//104 
f 142//104 141//104 206//104 
f 141//104 140//104 206//104 
f 140//104 139//104 206//104 
f 139//104 138//104 206//104 
f 138//104 137//104 206//104 
f 137//104 136//104 206//104 
f 136//104 135//104 206//104 
f 135//104 134//104 206//104 
f 134//104 133//104 206//104 
f 133//104 132//104 206//104 
f 132//104 131//104 206//104 
f 131//104 130//104 206//104 
f 130//104 129//104 206//104 
f 129//104 128//104 206//104 
f 128//104 127//104 206//104 
f 127//104 126//104 206//104 
f 126//104 125//104 206//104 
f 125//104 124//104 206//104 
f 124//104 123//104 206//104 
f 123//104 122//104 206//104 
f 122//104 121//104 206//104 
f 121//104 120//104 206//104 
f 120//104 119//104 206//104 
f 119//104 118//104 206//104 
f 118//104 117//104 206//104 
f 117//104 116//104 206//104 
f 116//104 115//104 206//104 
f 115//104 114//104 206//104 
f 114//104 113//104 206//104 
f 113//104 112//104 206//104 
f 112//104 111//104 206//104 
f 111//104 110//104 206//104 
f 110//104 109//104 206//104 
f 109//104 108//104 206//104 
f 108//104 107//104 206//104 
f 107//104 106//104 206//104 
f 106//104 105//104 206//104 
f 105//104 104//104 206//104 
f 104//104 205//104 206//104 
