# OBJ generated by ONSHAPE BY PTC INC, 1.213 Units = meters
mtllib warning - cross.mtl
g cross
v 0.212132 0.839158 0.002 
v 0.212132 0.839158 -0.002 
v 0.247487 0.874513 -0.002 
v 0.247487 0.874513 0.002 
v 0.0353553 1.08665 -0.002 
v 0.0353553 1.08665 0.002 
v 0.0353553 1.08865 -0.002 
v 0.0353553 1.08865 0.002 
v 0.247487 1.30078 -0.002 
v 0.247487 1.30078 0.002 
v 0.212132 1.33613 -0.002 
v 0.212132 1.33613 0.002 
v 0.002 1.126 0.002 
v 0.002 1.04929 0.002 
v 0.002 1.04929 -0.002 
v 0.002 1.126 -0.002 
v -1.10589e-17 1.05129 -6.93889e-18 
v 5.55112e-17 1.124 -4.6187e-17 
v 0.002 1.33613 -0.212132 
v -0.002 1.33613 -0.212132 
v -0.002 1.126 -0.002 
v 0.002 1.30078 -0.247487 
v -0.002 1.30078 -0.247487 
v 0.002 1.08865 -0.0353553 
v -0.002 1.08865 -0.0353553 
v 0.002 1.08665 -0.0353553 
v -0.002 1.08665 -0.0353553 
v 0.002 0.874513 -0.247487 
v 0.002 0.839158 -0.212132 
v -0.002 0.839158 -0.212132 
v -0.002 0.874513 -0.247487 
v -0.002 1.04929 -0.002 
v -0.212132 1.33613 0.002 
v -0.002 1.126 0.002 
v -0.212132 1.33613 -0.002 
v -0.212132 0.839158 -0.002 
v -0.002 1.04929 0.002 
v -0.212132 0.839158 0.002 
v -0.247487 1.30078 -0.002 
v -0.247487 1.30078 0.002 
v -0.0353553 1.08865 -0.002 
v -0.0353553 1.08865 0.002 
v -0.0353553 1.08665 -0.002 
v -0.247487 0.874513 -0.002 
v -0.0353553 1.08665 0.002 
v -0.247487 0.874513 0.002 
v -0.002 0.839158 0.212132 
v 0.002 0.839158 0.212132 
v -0.002 1.33613 0.212132 
v 0.002 1.33613 0.212132 
v 0.002 0.874513 0.247487 
v -0.002 0.874513 0.247487 
v 0.002 1.08665 0.0353553 
v -0.002 1.08665 0.0353553 
v 0.002 1.08865 0.0353553 
v 0.002 1.30078 0.247487 
v -0.002 1.30078 0.247487 
v -0.002 1.08865 0.0353553 
vn 0.707107 -0.707107 0 
vn 0.707107 0.707107 0 
vn 1 0 0 
vn 0.707107 -0.707107 0 
vn 0.707107 0.707107 0 
vn 0 0 1 
vn 0 0 -1 
vn -0.707107 -0.707107 0 
vn -0.707107 0.707107 0 
vn -4.32978e-17 0.707107 0.707107 
vn 4.32978e-17 0.707107 -0.707107 
vn 4.32978e-17 -0.707107 -0.707107 
vn 6.12323e-17 0 -1 
vn 1 0 6.12323e-17 
vn 4.32978e-17 -0.707107 -0.707107 
vn 4.32978e-17 0.707107 -0.707107 
vn -1 0 -6.12323e-17 
vn -4.32978e-17 -0.707107 0.707107 
vn 0.707107 0.707107 0 
vn 0.707107 -0.707107 0 
vn -0.707107 0.707107 0 
vn -0.707107 -0.707107 0 
vn 0 0 -1 
vn -1 -3.46945e-15 0 
vn -0.707107 0.707107 0 
vn -0.707107 -0.707107 0 
vn 0 0 1 
vn 4.32978e-17 -0.707107 -0.707107 
vn 4.32978e-17 0.707107 -0.707107 
vn -4.32978e-17 -0.707107 0.707107 
vn -4.32978e-17 0.707107 0.707107 
vn 1 0 6.12323e-17 
vn -1 0 -6.12323e-17 
vn -4.32978e-17 -0.707107 0.707107 
vn -6.12323e-17 -3.46945e-15 1 
vn -4.32978e-17 0.707107 0.707107 
usemtl 0.917647_0.917647_0.917647_0.000000_0.000000
o mesh0
f 1//1 2//1 3//1 
f 3//1 4//1 1//1 
o mesh1
f 4//2 3//2 5//2 
f 5//2 6//2 4//2 
o mesh2
f 6//3 5//3 7//3 
f 7//3 8//3 6//3 
o mesh3
f 8//4 7//4 9//4 
f 9//4 10//4 8//4 
o mesh4
f 10//5 9//5 11//5 
f 11//5 12//5 10//5 
o mesh5
f 13//6 14//6 6//6 
f 4//6 6//6 14//6 
f 10//6 12//6 13//6 
f 14//6 1//6 4//6 
f 6//6 8//6 13//6 
f 13//6 8//6 10//6 
o mesh6
f 3//7 2//7 15//7 
f 16//7 7//7 5//7 
f 5//7 15//7 16//7 
f 9//7 7//7 16//7 
f 16//7 11//7 9//7 
f 15//7 5//7 3//7 
o mesh7
f 1//8 14//8 15//8 
f 14//8 17//8 15//8 
f 15//8 2//8 1//8 
o mesh8
f 11//9 16//9 13//9 
f 13//9 12//9 11//9 
f 16//9 18//9 13//9 
o mesh9
f 19//10 20//10 21//10 
f 21//10 18//10 16//10 
f 21//10 16//10 19//10 
o mesh10
f 22//11 23//11 20//11 
f 20//11 19//11 22//11 
o mesh11
f 24//12 25//12 23//12 
f 23//12 22//12 24//12 
o mesh12
f 26//13 27//13 25//13 
f 25//13 24//13 26//13 
o mesh13
f 16//14 15//14 26//14 
f 28//14 26//14 15//14 
f 22//14 19//14 16//14 
f 15//14 29//14 28//14 
f 26//14 24//14 16//14 
f 16//14 24//14 22//14 
o mesh14
f 29//15 30//15 31//15 
f 31//15 28//15 29//15 
o mesh15
f 28//16 31//16 27//16 
f 27//16 26//16 28//16 
o mesh16
f 31//17 30//17 32//17 
f 21//17 25//17 27//17 
f 27//17 32//17 21//17 
f 23//17 25//17 21//17 
f 21//17 20//17 23//17 
f 32//17 27//17 31//17 
o mesh17
f 29//18 15//18 32//18 
f 15//18 17//18 32//18 
f 32//18 30//18 29//18 
o mesh18
f 33//19 34//19 21//19 
f 34//19 18//19 21//19 
f 21//19 35//19 33//19 
o mesh19
f 36//20 32//20 37//20 
f 37//20 38//20 36//20 
f 32//20 17//20 37//20 
o mesh20
f 33//21 35//21 39//21 
f 39//21 40//21 33//21 
o mesh21
f 40//22 39//22 41//22 
f 41//22 42//22 40//22 
o mesh22
f 21//23 32//23 43//23 
f 44//23 43//23 32//23 
f 39//23 35//23 21//23 
f 32//23 36//23 44//23 
f 43//23 41//23 21//23 
f 21//23 41//23 39//23 
o mesh23
f 42//24 41//24 43//24 
f 43//24 45//24 42//24 
o mesh24
f 45//25 43//25 44//25 
f 44//25 46//25 45//25 
o mesh25
f 46//26 44//26 36//26 
f 36//26 38//26 46//26 
o mesh26
f 46//27 38//27 37//27 
f 34//27 42//27 45//27 
f 45//27 37//27 34//27 
f 40//27 42//27 34//27 
f 34//27 33//27 40//27 
f 37//27 45//27 46//27 
o mesh27
f 47//28 37//28 14//28 
f 14//28 48//28 47//28 
f 37//28 17//28 14//28 
o mesh28
f 49//29 50//29 13//29 
f 13//29 34//29 49//29 
f 13//29 18//29 34//29 
o mesh29
f 51//30 52//30 47//30 
f 47//30 48//30 51//30 
o mesh30
f 53//31 54//31 52//31 
f 52//31 51//31 53//31 
o mesh31
f 51//32 48//32 14//32 
f 13//32 55//32 53//32 
f 53//32 14//32 13//32 
f 56//32 55//32 13//32 
f 13//32 50//32 56//32 
f 14//32 53//32 51//32 
o mesh32
f 34//33 37//33 54//33 
f 52//33 54//33 37//33 
f 57//33 49//33 34//33 
f 37//33 47//33 52//33 
f 54//33 58//33 34//33 
f 34//33 58//33 57//33 
o mesh33
f 56//34 57//34 58//34 
f 58//34 55//34 56//34 
o mesh34
f 55//35 58//35 54//35 
f 54//35 53//35 55//35 
o mesh35
f 50//36 49//36 57//36 
f 57//36 56//36 50//36 
